REM DIRINDEX 1\2\4,1\2\5,1\2\6,1\3\7,1\3\8,1\3\9,1\3\10
REM DIRNAME folder01,folder02,folder03,folder04,folder05,folder06,folder07,folder08,folder09,folder10
TITLE ""
FILE "a_187.mp3" MP3
  TRACK 01 AUDIO
    TITLE "0:"
    INDEX 01 00:00:00
  TRACK 02 AUDIO
    TITLE "4:cjc057_03929"
    INDEX 01 00:00:13
  TRACK 03 AUDIO
    TITLE "0:"
    INDEX 01 00:01:50
  TRACK 04 AUDIO
    TITLE "5:cjc057_03930"
    INDEX 01 00:02:10
  TRACK 05 AUDIO
    TITLE "0:"
    INDEX 01 00:04:50
  TRACK 06 AUDIO
    TITLE "4:cjc057_03931"
    INDEX 01 00:05:59
  TRACK 07 AUDIO
    TITLE "0:"
    INDEX 01 00:07:09
  TRACK 08 AUDIO
    TITLE "5:cjc057_03932"
    INDEX 01 00:07:45
  TRACK 09 AUDIO
    TITLE "0:"
    INDEX 01 00:10:31
  TRACK 10 AUDIO
    TITLE "4:cjc057_03933"
    INDEX 01 00:11:40
  TRACK 11 AUDIO
    TITLE "0:"
    INDEX 01 00:12:60
  TRACK 12 AUDIO
    TITLE "5:cjc057_03934"
    INDEX 01 00:13:20
  TRACK 13 AUDIO
    TITLE "0:"
    INDEX 01 00:15:58
  TRACK 14 AUDIO
    TITLE "4:cjc057_03935"
    INDEX 01 00:16:69
  TRACK 15 AUDIO
    TITLE "0:"
    INDEX 01 00:18:03
  TRACK 16 AUDIO
    TITLE "5:cjc057_03936"
    INDEX 01 00:18:39
  TRACK 17 AUDIO
    TITLE "0:"
    INDEX 01 00:20:63
  TRACK 18 AUDIO
    TITLE "4:cjc057_03937"
    INDEX 01 00:21:72
  TRACK 19 AUDIO
    TITLE "0:"
    INDEX 01 00:23:01
  TRACK 20 AUDIO
    TITLE "5:cjc057_03938"
    INDEX 01 00:23:36
  TRACK 21 AUDIO
    TITLE "0:"
    INDEX 01 00:26:66
  TRACK 22 AUDIO
    TITLE "4:cjc057_03939"
    INDEX 01 00:28:00
  TRACK 23 AUDIO
    TITLE "0:"
    INDEX 01 00:29:25
  TRACK 24 AUDIO
    TITLE "5:cjc057_03940"
    INDEX 01 00:29:60
  TRACK 25 AUDIO
    TITLE "0:"
    INDEX 01 00:32:11
  TRACK 26 AUDIO
    TITLE "4:cjc057_03941"
    INDEX 01 00:33:21
  TRACK 27 AUDIO
    TITLE "0:"
    INDEX 01 00:34:40
  TRACK 28 AUDIO
    TITLE "5:cjc057_03942"
    INDEX 01 00:35:00
  TRACK 29 AUDIO
    TITLE "0:"
    INDEX 01 00:36:13
  TRACK 30 AUDIO
    TITLE "4:cjc057_03943"
    INDEX 01 00:37:22
  TRACK 31 AUDIO
    TITLE "0:"
    INDEX 01 00:38:65
  TRACK 32 AUDIO
    TITLE "5:cjc057_03944"
    INDEX 01 00:39:25
  TRACK 33 AUDIO
    TITLE "0:"
    INDEX 01 00:41:67
  TRACK 34 AUDIO
    TITLE "4:cjc057_03945"
    INDEX 01 00:43:01
  TRACK 35 AUDIO
    TITLE "0:"
    INDEX 01 00:44:18
  TRACK 36 AUDIO
    TITLE "5:cjc057_03946"
    INDEX 01 00:44:54
  TRACK 37 AUDIO
    TITLE "0:"
    INDEX 01 00:47:30
  TRACK 38 AUDIO
    TITLE "4:cjc057_03947"
    INDEX 01 00:48:38
  TRACK 39 AUDIO
    TITLE "0:"
    INDEX 01 00:49:69
  TRACK 40 AUDIO
    TITLE "5:cjc057_03948"
    INDEX 01 00:50:29
  TRACK 41 AUDIO
    TITLE "0:"
    INDEX 01 00:52:67
  TRACK 42 AUDIO
    TITLE "4:cjc057_03949"
    INDEX 01 00:54:01
  TRACK 43 AUDIO
    TITLE "0:"
    INDEX 01 00:55:03
  TRACK 44 AUDIO
    TITLE "5:cjc057_03950"
    INDEX 01 00:55:38
  TRACK 45 AUDIO
    TITLE "0:"
    INDEX 01 00:56:74
  TRACK 46 AUDIO
    TITLE "4:cjc057_03951"
    INDEX 01 00:58:07
  TRACK 47 AUDIO
    TITLE "0:"
    INDEX 01 00:59:10
  TRACK 48 AUDIO
    TITLE "5:cjc057_03952"
    INDEX 01 00:59:45
  TRACK 49 AUDIO
    TITLE "0:"
    INDEX 01 01:01:29
  TRACK 50 AUDIO
    TITLE "4:cjc057_03953"
    INDEX 01 01:02:40
  TRACK 51 AUDIO
    TITLE "0:"
    INDEX 01 01:03:59
  TRACK 52 AUDIO
    TITLE "5:cjc057_03954"
    INDEX 01 01:04:19
  TRACK 53 AUDIO
    TITLE "0:"
    INDEX 01 01:06:65
  TRACK 54 AUDIO
    TITLE "4:cjc057_03955"
    INDEX 01 01:08:01
  TRACK 55 AUDIO
    TITLE "0:"
    INDEX 01 01:09:42
  TRACK 56 AUDIO
    TITLE "5:cjc057_03956"
    INDEX 01 01:10:02
  TRACK 57 AUDIO
    TITLE "0:"
    INDEX 01 01:11:70
  TRACK 58 AUDIO
    TITLE "4:cjc057_03957"
    INDEX 01 01:13:04
  TRACK 59 AUDIO
    TITLE "0:"
    INDEX 01 01:14:25
  TRACK 60 AUDIO
    TITLE "5:cjc057_03958"
    INDEX 01 01:14:61
  TRACK 61 AUDIO
    TITLE "0:"
    INDEX 01 01:17:20
  TRACK 62 AUDIO
    TITLE "4:cjc057_03959"
    INDEX 01 01:18:29
  TRACK 63 AUDIO
    TITLE "0:"
    INDEX 01 01:19:38
  TRACK 64 AUDIO
    TITLE "5:cjc057_03960"
    INDEX 01 01:19:72
  TRACK 65 AUDIO
    TITLE "0:"
    INDEX 01 01:22:17
